<?xml version="1.0" standalone="no"?>
<!DOCTYPE svg PUBLIC "-//W3C//DTD SVG 20010904//EN"
 "http://www.w3.org/TR/2001/REC-SVG-20010904/DTD/svg10.dtd">
<svg version="1.0" xmlns="http://www.w3.org/2000/svg"
 width="1182.000000pt" height="656.000000pt" viewBox="0 0 1182.000000 656.000000"
 preserveAspectRatio="xMidYMid meet">

<g transform="translate(0.000000,656.000000) scale(0.100000,-0.100000)"
fill="#000000" stroke="none">
<path d="M3525 4019 c-150 -107 -175 -129 -365 -314 -161 -157 -294 -265 -329
-265 -7 0 -55 39 -105 88 -51 48 -108 96 -128 106 -33 18 -40 19 -64 5 -51
-26 -159 -143 -245 -264 -142 -197 -201 -241 -346 -251 -48 -4 -99 -13 -113
-20 -39 -20 -177 -174 -156 -174 13 0 50 23 101 61 65 49 100 62 127 48 16 -9
41 -4 124 26 57 20 129 52 160 71 31 19 58 34 60 34 7 0 -29 -85 -49 -115 -11
-16 -34 -45 -51 -64 l-31 -34 45 26 c141 82 257 200 324 330 35 67 35 67 51
44 8 -13 27 -52 41 -88 73 -180 237 -324 424 -374 30 -8 66 -15 80 -15 21 0
14 7 -35 39 -116 74 -215 179 -215 227 0 14 17 42 38 65 62 69 273 237 368
292 18 11 -2 -69 -35 -135 -15 -32 -26 -58 -24 -58 2 0 20 11 41 25 39 25 63
60 155 219 56 96 133 186 160 186 44 0 40 -29 -52 -352 -49 -172 -88 -314 -87
-316 2 -1 30 39 63 90 74 114 159 282 203 403 19 50 42 102 52 117 41 60 95
40 135 -50 101 -234 192 -378 279 -448 86 -68 170 -106 259 -118 l50 -6 -38
20 c-56 31 -116 95 -142 154 -25 54 -45 159 -28 141 6 -5 65 -72 132 -147 67
-76 142 -154 165 -173 75 -61 199 -104 351 -120 l60 -6 -58 30 c-128 66 -228
169 -390 397 -47 66 -91 125 -99 131 -7 7 -46 18 -85 27 -83 17 -127 38 -209
100 -75 56 -122 110 -253 293 -56 78 -113 151 -128 162 -46 37 -79 28 -188
-50z"/>
<path d="M8645 3661 c-90 -16 -130 -56 -148 -151 -11 -54 -13 -58 -47 -66 -30
-8 -35 -13 -35 -39 0 -26 5 -31 38 -39 l37 -10 0 -212 c0 -230 3 -243 55 -230
l25 6 0 220 0 220 54 0 c75 0 106 13 106 44 0 34 -26 46 -101 46 l-62 0 7 43
c7 48 43 87 81 87 45 0 75 18 75 44 0 21 -28 50 -42 45 -2 -1 -21 -5 -43 -8z"/>
<path d="M5266 3608 c-14 -22 -234 -552 -262 -630 -11 -32 -11 -38 6 -53 34
-31 53 -15 90 78 l35 87 169 -2 169 -3 34 -80 c41 -95 44 -99 77 -91 19 5 26
13 26 31 0 24 -253 646 -273 673 -15 20 -55 14 -71 -10z m108 -283 l62 -150
-129 -3 c-71 -1 -131 -1 -133 1 -4 4 110 288 123 311 4 6 8 6 10 1 2 -6 32
-77 67 -160z"/>
<path d="M7396 3615 c-57 -20 -88 -46 -111 -91 -18 -35 -20 -59 -20 -254 0
-211 1 -216 25 -260 39 -70 94 -93 238 -98 196 -8 268 22 297 122 17 59 13 82
-18 92 -25 8 -57 -26 -57 -60 0 -13 -12 -33 -26 -47 -25 -23 -31 -24 -163 -24
-213 0 -221 10 -221 277 0 197 9 230 70 261 29 15 55 18 162 15 117 -3 128 -5
151 -26 14 -13 28 -39 31 -58 7 -36 29 -54 57 -47 26 7 30 26 14 85 -15 61
-54 101 -112 117 -56 16 -270 13 -317 -4z"/>
<path d="M6238 3569 c-14 -8 -18 -23 -18 -64 0 -52 -2 -55 -24 -55 -46 0 -76
-18 -76 -45 0 -27 30 -45 76 -45 l24 0 0 -158 c0 -144 2 -162 23 -202 26 -51
70 -78 144 -86 56 -7 79 9 69 49 -5 21 -14 25 -58 30 -40 5 -59 13 -75 32 -22
25 -23 35 -23 181 l0 154 54 0 c75 0 106 13 106 44 0 34 -26 46 -99 46 l-61 0
0 49 c0 32 -6 55 -16 65 -18 19 -23 19 -46 5z"/>
<path d="M5736 3441 c-77 -16 -119 -101 -97 -195 20 -84 70 -105 257 -106 129
0 137 -4 132 -76 -4 -66 -22 -74 -166 -74 -105 0 -114 2 -135 23 -12 13 -27
31 -33 42 -8 14 -16 17 -38 11 -27 -7 -28 -10 -23 -47 7 -49 38 -86 86 -99 51
-14 269 -11 311 4 53 19 80 66 80 138 0 33 -7 74 -15 92 -26 54 -46 61 -202
66 -164 6 -178 12 -177 81 1 22 6 45 12 51 13 13 166 23 226 14 38 -6 49 -13
62 -37 13 -25 20 -30 47 -27 39 4 45 24 21 73 -26 55 -61 68 -194 71 -63 2
-133 -1 -154 -5z"/>
<path d="M6634 3441 c-28 -5 -59 -13 -70 -19 -37 -20 -66 -60 -67 -94 -2 -30
1 -33 30 -36 27 -3 34 2 47 26 8 16 23 32 31 36 9 3 64 6 121 6 98 0 107 -2
129 -25 14 -13 25 -36 25 -50 l0 -25 -137 0 c-216 -1 -258 -29 -258 -175 0
-126 38 -164 172 -173 81 -5 153 9 194 39 l28 20 7 -25 c6 -27 31 -40 57 -30
25 9 30 60 25 233 -5 190 -21 236 -91 270 -49 23 -166 34 -243 22z m246 -321
c0 -53 -4 -64 -26 -85 -33 -31 -114 -49 -194 -43 -50 4 -67 9 -81 27 -21 26
-25 91 -8 122 16 32 45 38 182 38 l127 1 0 -60z"/>
<path d="M8045 3441 c-68 -11 -111 -35 -130 -72 -25 -46 -17 -73 23 -77 19 -2
32 1 32 8 0 6 11 22 25 35 22 23 31 25 129 25 121 0 132 -3 151 -41 30 -56 29
-57 -138 -61 -169 -3 -190 -10 -227 -71 -30 -48 -28 -162 3 -208 35 -53 68
-64 182 -64 90 0 105 3 148 27 42 24 47 25 47 9 0 -27 26 -44 55 -37 l25 6 0
189 c0 114 -4 201 -11 222 -15 44 -46 78 -86 95 -41 18 -162 25 -228 15z m245
-315 c0 -73 -30 -110 -101 -125 -93 -20 -191 -10 -211 22 -10 15 -10 109 0
123 18 27 53 33 180 34 l132 0 0 -54z"/>
<path d="M8870 3441 c-112 -18 -149 -70 -157 -220 -6 -110 8 -200 37 -240 37
-53 81 -66 220 -66 108 0 130 3 160 21 67 39 102 122 61 144 -27 14 -45 4 -64
-35 -12 -25 -26 -36 -54 -44 -41 -12 -174 -13 -212 -2 -35 10 -60 50 -63 101
l-3 45 205 5 205 5 3 55 c7 118 -23 186 -94 216 -40 17 -182 25 -244 15z m230
-99 c15 -12 24 -33 27 -65 l6 -47 -173 0 c-153 0 -171 2 -166 16 3 9 6 27 6
40 0 14 11 36 25 49 23 24 30 25 138 25 95 0 119 -3 137 -18z"/>
<path d="M1848 2824 c-12 -11 -9 -273 2 -295 7 -12 21 -19 38 -19 l27 0 -25
13 c-25 12 -25 15 -30 161 -3 81 -8 144 -12 140z"/>
<path d="M5567 2823 c-4 -3 -7 -33 -7 -65 l0 -59 -26 20 c-55 43 -118 17 -135
-56 -11 -52 2 -122 27 -140 24 -18 85 -16 112 3 20 14 22 14 22 0 0 -9 5 -16
10 -16 6 0 10 60 10 160 0 88 -1 160 -3 160 -2 0 -7 -3 -10 -7z m-28 -129 c25
-32 28 -109 6 -141 -18 -26 -56 -36 -89 -23 -46 17 -58 128 -18 173 24 27 76
22 101 -9z"/>
<path d="M5922 2675 l3 -160 28 -3 c15 -2 27 1 27 6 0 5 -8 9 -17 8 -16 -1
-18 13 -21 144 -1 79 -7 149 -13 155 -6 6 -9 -44 -7 -150z"/>
<path d="M6420 2671 c0 -101 4 -161 10 -161 6 0 10 36 10 89 0 82 2 91 22 105
12 9 34 16 48 16 49 0 55 -12 58 -115 2 -54 8 -95 14 -95 6 0 9 36 6 96 -3 86
-5 98 -27 115 -28 23 -56 24 -93 5 l-28 -15 0 54 c0 30 -4 57 -10 60 -7 4 -10
-50 -10 -154z"/>
<path d="M8468 2824 c-12 -11 -9 -273 2 -295 7 -12 21 -19 38 -19 l27 0 -25
13 c-25 12 -25 15 -30 161 -3 81 -8 144 -12 140z"/>
<path d="M4640 2801 c0 -6 5 -13 10 -16 6 -3 10 1 10 9 0 9 -4 16 -10 16 -5 0
-10 -4 -10 -9z"/>
<path d="M4910 2801 c0 -6 5 -13 10 -16 6 -3 10 1 10 9 0 9 -4 16 -10 16 -5 0
-10 -4 -10 -9z"/>
<path d="M6040 2794 c0 -8 5 -12 10 -9 6 3 10 10 10 16 0 5 -4 9 -10 9 -5 0
-10 -7 -10 -16z"/>
<path d="M2670 2765 c0 -17 -7 -28 -22 -34 l-22 -8 22 -5 c21 -6 22 -12 22
-95 0 -56 4 -93 12 -101 15 -15 68 -16 68 -2 0 6 -6 10 -12 9 -47 -6 -48 -3
-48 95 l0 95 33 4 32 4 -32 1 c-28 2 -33 6 -33 26 0 14 -4 28 -10 31 -6 4 -10
-5 -10 -20z"/>
<path d="M5030 2765 c0 -17 -7 -28 -22 -34 l-22 -8 22 -5 c21 -6 22 -12 22
-95 0 -56 4 -93 12 -101 15 -15 68 -16 68 -2 0 6 -6 10 -12 9 -47 -6 -48 -3
-48 95 l0 95 33 4 32 4 -32 1 c-28 2 -33 6 -33 26 0 14 -4 28 -10 31 -6 4 -10
-5 -10 -20z"/>
<path d="M6680 2765 c0 -17 -7 -29 -22 -35 l-23 -9 23 0 c21 -1 22 -4 22 -94
0 -59 4 -97 12 -105 15 -15 68 -16 68 -1 0 6 -6 9 -12 6 -7 -2 -21 0 -30 5
-15 7 -18 23 -18 98 l0 89 33 4 32 4 -32 1 c-30 2 -33 5 -33 32 0 17 -4 30
-10 30 -5 0 -10 -11 -10 -25z"/>
<path d="M8848 2784 c-5 -4 -8 -18 -8 -30 0 -13 -7 -24 -17 -27 -17 -4 -17 -5
0 -6 15 -1 17 -12 17 -80 0 -108 10 -131 55 -131 19 0 35 4 35 9 0 5 -12 9
-26 9 -37 0 -44 16 -44 110 l0 82 33 1 32 1 -30 7 c-23 5 -31 13 -35 34 -3 16
-8 25 -12 21z"/>
<path d="M1630 2727 c-51 -25 -63 -154 -19 -198 22 -22 123 -27 135 -7 5 8 -4
9 -34 5 -57 -10 -89 5 -100 45 -11 43 -3 48 81 48 l67 0 0 35 c0 68 -66 104
-130 72z m91 -17 c12 -7 19 -21 19 -39 0 -27 -3 -29 -52 -35 -88 -10 -89 -10
-82 22 14 56 64 79 115 52z"/>
<path d="M1999 2729 c-36 -14 -52 -57 -47 -124 6 -77 25 -95 99 -95 32 0 61 5
65 11 5 8 -8 9 -44 4 -47 -6 -54 -4 -77 19 -16 16 -25 35 -23 49 3 20 10 22
78 27 l75 5 -1 38 c-1 21 -8 45 -16 53 -19 19 -76 26 -109 13z m95 -31 c24
-34 20 -58 -8 -58 -13 0 -44 -3 -70 -6 -45 -7 -46 -6 -46 20 0 60 91 92 124
44z"/>
<path d="M2445 2730 c-4 -6 11 -10 37 -10 51 0 68 -13 68 -51 0 -26 -2 -27
-66 -31 -50 -3 -70 -9 -80 -23 -20 -26 -17 -69 4 -88 23 -21 90 -22 119 -2 20
14 23 14 32 -2 8 -13 10 8 11 80 0 84 -3 100 -20 117 -21 21 -94 28 -105 10z
m105 -138 c0 -39 -31 -64 -80 -66 -43 -1 -60 13 -60 50 0 33 20 44 82 44 57 0
58 0 58 -28z"/>
<path d="M2840 2727 c-51 -25 -63 -154 -19 -198 22 -22 123 -27 135 -7 5 8 -4
9 -34 5 -57 -10 -89 5 -100 45 -11 43 -3 48 81 48 l67 0 0 35 c0 68 -66 104
-130 72z m91 -17 c12 -7 19 -21 19 -39 0 -27 -3 -29 -52 -35 -88 -10 -89 -10
-82 22 14 56 64 79 115 52z"/>
<path d="M3413 2730 c-32 -13 -43 -41 -43 -108 0 -81 24 -112 86 -112 25 0 54
5 64 10 44 24 51 158 10 195 -22 20 -86 29 -117 15z m106 -36 c38 -49 23 -146
-25 -164 -32 -13 -89 3 -98 26 -13 34 -6 127 11 146 26 29 87 24 112 -8z"/>
<path d="M3942 2724 c-12 -8 -22 -10 -22 -5 0 6 -4 11 -10 11 -6 0 -10 -43
-10 -110 0 -67 4 -110 10 -110 6 0 10 35 10 85 0 72 3 88 20 105 11 11 27 20
35 20 8 0 15 5 15 10 0 15 -22 12 -48 -6z"/>
<path d="M4182 2724 c-30 -21 -30 -69 1 -88 12 -8 34 -18 50 -21 35 -9 52 -38
37 -65 -11 -20 -26 -24 -89 -20 -22 1 -31 -2 -27 -9 10 -15 99 -14 120 2 34
25 11 107 -30 107 -30 0 -64 24 -64 45 0 33 24 48 70 43 40 -4 53 5 24 16 -28
11 -69 6 -92 -10z"/>
<path d="M4416 2719 c-21 -17 -26 -18 -26 -5 0 9 -4 16 -10 16 -6 0 -10 -57
-10 -150 0 -93 4 -150 10 -150 6 0 10 27 10 60 l0 60 20 -20 c14 -14 33 -20
65 -20 40 0 47 4 65 33 13 21 20 50 20 85 0 46 -4 58 -29 83 -35 35 -77 38
-115 8z m99 -13 c13 -10 20 -30 23 -74 4 -55 2 -63 -21 -86 -32 -32 -58 -33
-94 -2 -25 21 -28 31 -28 81 0 48 4 60 24 76 27 22 69 25 96 5z"/>
<path d="M4802 2724 c-12 -8 -22 -10 -22 -5 0 6 -4 11 -10 11 -6 0 -10 -43
-10 -110 0 -67 4 -110 10 -110 6 0 10 36 10 88 0 73 3 92 18 105 10 10 26 17
35 17 9 0 17 5 17 10 0 15 -22 12 -48 -6z"/>
<path d="M5709 2729 c-36 -14 -52 -57 -47 -124 6 -77 25 -95 99 -95 32 0 61 5
65 11 5 8 -8 9 -44 4 -47 -6 -54 -4 -77 19 -16 16 -25 35 -23 49 3 20 10 22
78 27 l75 5 -1 38 c-1 21 -8 45 -16 53 -19 19 -76 26 -109 13z m95 -31 c24
-34 20 -58 -8 -58 -13 0 -44 -3 -70 -6 -45 -7 -46 -6 -46 20 0 60 91 92 124
44z"/>
<path d="M6169 2711 c-30 -30 -31 -35 -27 -98 3 -54 8 -69 27 -84 31 -25 82
-24 115 2 29 23 30 20 16 -33 -9 -31 -17 -39 -47 -47 -20 -6 -47 -8 -60 -5
-14 4 -23 2 -23 -5 0 -17 92 -13 117 4 12 9 27 32 33 53 13 48 13 232 0 232
-5 0 -10 -7 -10 -17 0 -15 -1 -15 -19 1 -10 9 -35 19 -54 23 -31 5 -40 1 -68
-26z m101 -1 c41 -22 49 -121 12 -162 -24 -28 -88 -24 -108 7 -22 34 -15 132
11 151 22 16 59 18 85 4z"/>
<path d="M7185 2731 c-30 -13 -42 -31 -50 -77 -8 -52 10 -120 35 -134 27 -14
103 -12 124 3 37 27 39 158 3 194 -17 18 -85 26 -112 14z m100 -31 c24 -27 26
-133 2 -157 -21 -21 -94 -21 -115 1 -25 24 -23 127 2 155 26 28 86 28 111 1z"/>
<path d="M7712 2724 c-12 -8 -22 -10 -22 -5 0 6 -4 11 -10 11 -6 0 -10 -43
-10 -110 0 -67 4 -110 10 -110 6 0 10 36 10 88 0 73 3 92 18 105 10 10 26 17
35 17 9 0 17 5 17 10 0 15 -22 12 -48 -6z"/>
<path d="M7988 2726 c-16 -8 -28 -11 -28 -5 0 5 -4 9 -10 9 -6 0 -10 -57 -10
-150 0 -93 4 -150 10 -150 6 0 10 25 10 57 0 54 1 55 18 40 11 -10 35 -17 60
-17 32 0 45 5 62 28 19 23 21 37 18 94 -2 44 -9 73 -19 83 -23 23 -79 28 -111
11z m96 -28 c10 -14 16 -44 16 -76 0 -43 -5 -58 -25 -77 -28 -29 -51 -31 -82
-10 -44 31 -48 142 -7 172 29 21 81 16 98 -9z"/>
<path d="M8246 2731 c-5 -7 5 -11 29 -11 52 0 75 -15 75 -50 0 -30 0 -30 -58
-30 -73 0 -102 -18 -102 -65 0 -18 7 -41 16 -49 20 -21 93 -21 122 0 20 14 22
14 22 0 0 -9 5 -16 10 -16 16 0 13 182 -3 204 -16 21 -101 34 -111 17z m104
-139 c0 -49 -62 -82 -114 -62 -20 7 -26 17 -26 38 0 41 17 52 82 52 57 0 58 0
58 -28z"/>
<path d="M8626 2731 c-5 -7 5 -11 29 -11 52 0 75 -15 75 -50 0 -30 0 -30 -58
-30 -73 0 -102 -18 -102 -65 0 -18 7 -41 16 -49 20 -21 93 -21 122 0 20 14 22
14 22 0 0 -9 5 -16 10 -16 16 0 13 182 -3 204 -16 21 -101 34 -111 17z m104
-139 c0 -49 -62 -82 -114 -62 -20 7 -26 17 -26 38 0 41 17 52 82 52 57 0 58 0
58 -28z"/>
<path d="M9020 2727 c-13 -7 -30 -24 -37 -37 -25 -50 -9 -151 27 -170 24 -13
117 -13 125 -1 3 6 -17 9 -49 8 -63 -2 -86 13 -89 59 l-2 29 75 5 75 5 3 32
c6 64 -64 102 -128 70z m92 -24 c10 -9 18 -26 18 -38 0 -20 -7 -23 -66 -29
-37 -4 -69 -5 -71 -2 -9 8 6 54 23 70 20 21 73 20 96 -1z"/>
<path d="M2214 2621 c22 -61 46 -111 52 -111 10 0 40 67 90 203 3 9 2 17 -4
17 -6 0 -25 -41 -43 -90 -17 -50 -35 -93 -39 -95 -4 -2 -22 37 -41 87 -19 50
-39 93 -45 95 -6 2 7 -46 30 -106z"/>
<path d="M3176 2623 c40 -96 43 -110 33 -136 -7 -16 -24 -34 -38 -39 -22 -10
-23 -12 -7 -16 11 -2 28 6 41 20 23 23 120 266 110 276 -9 9 -13 -1 -49 -99
l-34 -94 -20 47 c-12 25 -29 69 -39 97 -10 28 -23 51 -30 51 -8 0 5 -40 33
-107z"/>
<path d="M3640 2636 c0 -73 4 -98 16 -110 21 -21 97 -21 115 0 12 14 14 14 20
-3 4 -10 7 34 7 97 l-1 115 -6 -87 c-5 -63 -11 -93 -24 -105 -21 -21 -85 -23
-98 -2 -5 7 -9 53 -9 102 0 51 -4 87 -10 87 -6 0 -10 -38 -10 -94z"/>
<path d="M4640 2620 c0 -67 4 -110 10 -110 6 0 10 43 10 110 0 67 -4 110 -10
110 -6 0 -10 -43 -10 -110z"/>
<path d="M4910 2620 c0 -67 4 -110 10 -110 6 0 10 43 10 110 0 67 -4 110 -10
110 -6 0 -10 -43 -10 -110z"/>
<path d="M6040 2620 c0 -67 4 -110 10 -110 6 0 10 43 10 110 0 67 -4 110 -10
110 -6 0 -10 -43 -10 -110z"/>
<path d="M6919 2683 c10 -26 30 -77 45 -112 23 -57 24 -66 11 -91 -8 -15 -25
-31 -37 -35 -20 -6 -21 -8 -5 -12 37 -10 57 23 121 200 20 54 31 97 25 95 -6
-2 -24 -40 -40 -83 -16 -44 -32 -87 -35 -95 -3 -9 -21 23 -44 80 -20 52 -43
96 -49 98 -7 2 -4 -15 8 -45z"/>
<path d="M7410 2636 c0 -73 4 -98 16 -110 18 -18 76 -21 106 -5 16 9 23 8 29
-2 5 -8 9 32 9 99 0 68 -4 112 -10 112 -6 0 -10 -34 -10 -81 0 -44 -4 -89 -10
-99 -12 -23 -52 -33 -84 -20 -25 9 -26 12 -26 105 0 57 -4 95 -10 95 -6 0 -10
-38 -10 -94z"/>
<path d="M5168 2503 c-9 -26 -16 -49 -14 -50 6 -6 35 44 42 71 11 45 -10 28
-28 -21z"/>
</g>
</svg>
